#!OML:ASF C:\ViconDB\ViconDB\414\Spring2016\041811\Spring2016.ASF
:FULLY-SPECIFIED
:DEGREES
231
root 7.47865 17.2415 -32.6746 -182.572 -0.557514 184.861
lowerback 7.55559 1.49167 2.20538
upperback 2.24956 1.88851 4.54431
thorax -1.98655 0.774412 3.29367
lowerneck -12.8266 -4.85987 -14.8354
upperneck 19.5532 -7.21806 13.3921
head 9.26286 -3.46108 6.23753
rclavicle -1.13307e-014 -7.23576e-014
rhumerus -49.0198 0.931962 -88.6957
rradius 97.5053
rwrist 9.24011
rhand -38.6394 -14.2818
rfingers 7.12502
rthumb -11.6559 -43.9376
lclavicle -1.13307e-014 -7.23576e-014
lhumerus -61.8391 -19.4898 99.1867
lradius 60.6803
lwrist -14.3999
lhand -34.7129 15.8538
lfingers 7.12502
lthumb -7.86765 45.6874
rfemur -21.2049 -15.4207 29.7568
rtibia 51.0036
rfoot -169.634 14.1046
rtoes -11.8646
lfemur -15.8286 6.33184 -6.20077
ltibia 87.8632
lfoot -2.50401 -1.21893
ltoes -3.06333
232
root 7.44591 17.2202 -33.1019 -182.167 -0.347359 185.044
lowerback 7.08167 1.70326 2.60512
upperback 2.28916 2.17247 4.50379
thorax -1.67652 0.917086 3.01093
lowerneck -12.7192 -4.91927 -14.8521
upperneck 19.2165 -7.30636 13.6022
head 9.1511 -3.47835 6.29742
rclavicle -2.79292e-014 -2.78299e-014
rhumerus -46.5027 1.04073 -88.9808
rradius 98.5687
rwrist 10.8563
rhand -37.8915 -13.8628
rfingers 7.12502
rthumb -10.9347 -43.5581
lclavicle -2.79292e-014 -2.78299e-014
lhumerus -63.9374 -19.9516 99.8665
lradius 60.2788
lwrist -12.1182
lhand -34.1597 16.0514
lfingers 7.12502
lthumb -7.33374 45.9043
rfemur -19.7396 -15.5925 29.5181
rtibia 50.709
rfoot -170.135 15.1742
rtoes -11.132
lfemur -19.4572 6.84915 -6.35574
ltibia 89.0779
lfoot -3.97218 -0.381104
ltoes -3.90602
233
root 7.43306 17.2317 -33.544 -182.238 -0.33981 184.848
lowerback 7.11939 1.89716 2.28532
upperback 2.36096 2.41602 4.42576
thorax -1.64267 1.04318 3.08835
lowerneck -12.598 -4.95974 -14.7759
upperneck 19.0519 -7.42097 13.7779
head 9.09465 -3.51413 6.32957
rclavicle 1.76918e-014 1.90833e-014
rhumerus -44.6125 1.36306 -89.5788
rradius 100.215
rwrist 11.1224
rhand -38.081 -13.5366
rfingers 7.12502
rthumb -11.1174 -43.2221
lclavicle 1.76918e-014 1.90833e-014
lhumerus -66.3097 -20.4859 100.655
lradius 60.5309
lwrist -10.9906
lhand -33.8292 16.2569
lfingers 7.12502
lthumb -7.01467 46.1207
rfemur -17.2732 -15.4602 28.7945
rtibia 49.7772
rfoot -171.016 15.9085
rtoes -10.8387
lfemur -22.1591 7.03597 -6.92496
ltibia 89.3511
lfoot -5.15401 0.792459
ltoes -2.6828
234
root 7.41545 17.2518 -33.9814 -182.528 -0.510928 184.592
lowerback 7.40463 2.09622 1.97379
upperback 2.39207 2.68496 4.26499
thorax -1.78694 1.18426 3.06465
lowerneck -12.419 -5.06562 -14.5405
upperneck 19.0682 -7.69279 13.8543
head 9.1038 -3.6327 6.28155
rclavicle 1.33186e-014 5.00937e-014
rhumerus -43.0239 1.49821 -90.2646
rradius 102.24
rwrist 10.5518
rhand -37.7949 -12.8514
rfingers 7.12502
rthumb -10.8414 -42.5515
lclavicle 1.33186e-014 5.00937e-014
lhumerus -68.9169 -21.2313 101.554
lradius 61.6169
lwrist -9.76607
lhand -33.5914 15.7173
lfingers 7.12502
lthumb -6.78514 45.5886
rfemur -14.4334 -15.5003 27.9582
rtibia 48.5107
rfoot -171.656 16.4422
rtoes -10.539
lfemur -24.5181 7.01781 -7.61714
ltibia 88.9545
lfoot -6.66805 1.84998
ltoes -3.69227
235
root 7.40496 17.2861 -34.4346 -182.506 -0.351251 185.764
lowerback 7.28929 2.41405 2.90007
upperback 2.32673 3.14153 4.58098
thorax -1.7732 1.39453 2.83692
lowerneck -12.3377 -5.21391 -14.2949
upperneck 19.2004 -7.9731 13.7235
head 9.16298 -3.76734 6.15685
rclavicle -6.60959e-014 -4.29375e-014
rhumerus -41.7613 1.94022 -90.8876
rradius 104.524
rwrist 9.46743
rhand -37.9782 -13.083
rfingers 7.12502
rthumb -11.0183 -42.7739
lclavicle -6.60959e-014 -4.29375e-014
lhumerus -71.4592 -21.8225 102.46
lradius 62.9319
lwrist -9.91904
lhand -32.9694 15.0549
lfingers 7.12502
lthumb -6.18465 44.9446
rfemur -11.6044 -15.287 28.7821
rtibia 46.7258
rfoot -171.974 16.7105
rtoes -10.0358
lfemur -26.8751 7.5947 -6.54743
ltibia 88.0017
lfoot -8.3436 2.42846
ltoes -5.00552
236
root 7.38565 17.3631 -34.9005 -182.236 -0.402709 184.862
lowerback 6.77359 2.73078 1.74887
upperback 2.22198 3.52565 4.30245
thorax -1.66253 1.6173 3.17565
lowerneck -12.1168 -5.35524 -14.1941
upperneck 19.22 -8.28392 13.8469
head 9.17863 -3.91151 6.14462
rclavicle -3.29486e-014 -6.12257e-014
rhumerus -40.7621 2.34019 -91.3965
rradius 106.962
rwrist 8.60059
rhand -37.4884 -13.2004
rfingers 7.12502
rthumb -10.5458 -42.9159
lclavicle -3.29486e-014 -6.12257e-014
lhumerus -73.8386 -22.3057 103.194
lradius 64.3611
lwrist -10.6921
lhand -32.9304 14.4822
lfingers 7.12502
lthumb -6.147 44.373
rfemur -9.01943 -14.8436 27.4133
rtibia 44.811
rfoot -172.013 16.5301
rtoes -9.24395
lfemur -28.9579 7.59935 -8.28837
ltibia 86.0409
lfoot -9.76154 3.35593
ltoes -5.12209
237
root 7.35793 17.4524 -35.3711 -182.237 -0.339309 184.785
lowerback 6.53521 3.07458 1.52858
upperback 2.13292 3.98578 4.22303
thorax -1.65229 1.8577 3.1866
lowerneck -11.9058 -5.51355 -14.242
upperneck 19.3052 -8.65891 14.184
head 9.24587 -4.08273 6.22904
rclavicle -1.04263e-013 -8.18993e-014
rhumerus -40.1117 2.96976 -91.8831
rradius 109.295
rwrist 7.5912
rhand -37.6944 -13.2058
rfingers 7.12502
rthumb -10.7445 -42.911
lclavicle -1.04263e-013 -8.18993e-014
lhumerus -76.1057 -22.6157 103.718
lradius 66.0221
lwrist -11.7105
lhand -32.5402 13.6373
lfingers 7.12502
lthumb -5.77028 43.5387
rfemur -5.90558 -14.116 26.9781
rtibia 42.5628
rfoot -172.345 15.7717
rtoes -8.31009
lfemur -30.3887 7.61035 -8.99599
ltibia 83.4846
lfoot -11.0439 3.6509
ltoes -3.46403
238
root 7.32245 17.5607 -35.8544 -182.279 -0.367032 184.872
lowerback 6.21678 3.33094 1.59959
upperback 2.00884 4.34567 4.08508
thorax -1.6039 2.04824 2.98796
lowerneck -11.6515 -5.62959 -14.1482
upperneck 19.4431 -9.00944 14.4439
head 9.30964 -4.245 6.26573
rclavicle -3.61788e-014 -5.48646e-014
rhumerus -39.7894 3.74694 -92.4684
rradius 111.622
rwrist 6.68382
rhand -37.596 -13.389
rfingers 7.12502
rthumb -10.6495 -43.0992
lclavicle -3.61788e-014 -5.48646e-014
lhumerus -78.4019 -22.8984 104.173
lradius 67.8714
lwrist -12.3078
lhand -32.2915 13.3721
lfingers 7.12502
lthumb -5.53022 43.2799
rfemur -2.74864 -13.5672 26.7075
rtibia 40.2576
rfoot -171.922 14.795
rtoes -8.60618
lfemur -31.4291 7.39835 -9.58164
ltibia 80.2441
lfoot -12.3355 3.74841
ltoes -3.54948
239
root 7.28571 17.685 -36.344 -182.157 -0.570566 184.853
lowerback 5.69378 3.57179 1.61001
upperback 1.82983 4.68285 3.90666
thorax -1.49624 2.23152 2.79673
lowerneck -11.4357 -5.79709 -14.2612
upperneck 19.6422 -9.42816 14.8194
head 9.43099 -4.44412 6.37283
rclavicle 3.04638e-014 -2.62396e-014
rhumerus -39.7015 4.5928 -92.8264
rradius 113.865
rwrist 5.72744
rhand -37.5686 -13.6053
rfingers 7.12502
rthumb -10.6231 -43.3168
lclavicle 3.04638e-014 -2.62396e-014
lhumerus -80.6184 -23.1797 104.642
lradius 69.74
lwrist -11.9575
lhand -32.4152 12.5379
lfingers 7.12502
lthumb -5.64965 42.4426
rfemur 0.274474 -12.8686 26.3409
rtibia 37.8015
rfoot -171.174 13.2292
rtoes -7.752
lfemur -32.2987 6.87355 -10.3363
ltibia 76.3805
lfoot -13.3174 3.55976
ltoes -4.47078
240
root 7.24313 17.8247 -36.8521 -181.849 -0.950673 184.83
lowerback 4.55991 3.64742 1.54533
upperback 1.77781 4.76165 3.80299
thorax -0.91823 2.28358 2.79028
lowerneck -11.4662 -5.9089 -14.427
upperneck 19.9352 -9.68653 15.0539
head 9.60296 -4.56794 6.45917
rclavicle -2.92213e-014 -5.40694e-014
rhumerus -39.612 5.73976 -93.0753
rradius 115.875
rwrist 5.1622
rhand -37.616 -13.1703
rfingers 7.12502
rthumb -10.6689 -42.8794
lclavicle -2.92213e-014 -5.40694e-014
lhumerus -82.3676 -23.0465 104.851
lradius 71.2896
lwrist -12.9346
lhand -32.9585 12.3315
lfingers 7.12502
lthumb -6.17416 42.2215
rfemur 3.10121 -12.414 25.9792
rtibia 35.3507
rfoot -170.146 11.5806
rtoes -7.9648
lfemur -33.0177 6.12971 -11.1207
ltibia 72.0007
lfoot -14.3562 3.15224
ltoes -4.42264
241
root 7.19716 17.9645 -37.3702 -181.712 -1.36561 185.066
lowerback 3.45873 3.73056 1.81307
upperback 1.76279 4.85243 3.71052
thorax -0.292775 2.33752 2.6153
lowerneck -11.5348 -6.0221 -14.3071
upperneck 20.2923 -9.92418 14.9608
head 9.76954 -4.68469 6.37742
rclavicle -3.75206e-015 -1.31198e-014
rhumerus -39.7007 6.8698 -93.448
rradius 117.716
rwrist 4.43263
rhand -37.9531 -13.0455
rfingers 7.12502
rthumb -10.9941 -42.7376
lclavicle -3.75206e-015 -1.31198e-014
lhumerus -83.8299 -22.9025 104.925
lradius 73.2538
lwrist -11.6817
lhand -32.6797 12.0596
lfingers 7.12502
lthumb -5.90502 41.9573
rfemur 6.00142 -12.1198 25.8705
rtibia 32.8982
rfoot -168.564 9.67899
rtoes -7.11591
lfemur -33.243 5.2665 -11.5017
ltibia 67.1609
lfoot -15.3778 2.46245
ltoes -3.75922
242
root 7.14823 18.118 -37.8908 -181.357 -2.16509 185.166
lowerback 2.39389 3.66459 2.129
upperback 1.55372 4.76368 3.45255
thorax 0.137516 2.30968 2.24297
lowerneck -11.5425 -6.11749 -14.3942
upperneck 20.698 -10.207 15.1627
head 9.97807 -4.8231 6.43744
rclavicle 3.01407e-014 -1.63003e-014
rhumerus -40.0969 7.98709 -93.8629
rradius 119.382
rwrist 4.44946
rhand -36.8141 -12.9762
rfingers 7.12502
rthumb -9.89527 -42.7236
lclavicle 3.01407e-014 -1.63003e-014
lhumerus -85.3471 -22.7644 104.708
lradius 75.2267
lwrist -10.7801
lhand -32.5735 11.8223
lfingers 7.12502
lthumb -5.8024 41.7228
rfemur 8.50546 -12.4158 25.5253
rtibia 30.5456
rfoot -166.515 7.75287
rtoes -7.4989
lfemur -33.5378 4.11532 -12.0444
ltibia 61.9947
lfoot -16.1171 1.66457
ltoes -4.16866
243
root 7.09983 18.2808 -38.417 -181.119 -3.00218 185.05
lowerback 1.31871 3.56408 2.08755
upperback 1.44318 4.61237 3.25104
thorax 0.641432 2.24682 2.13034
lowerneck -11.6654 -6.21327 -14.605
upperneck 21.2063 -10.418 15.2232
head 10.2345 -4.94103 6.47845
rclavicle -4.93731e-014 -3.53837e-014
rhumerus -40.5064 9.24377 -94.0686
rradius 120.955
rwrist 4.64578
rhand -36.715 -13.0955
rfingers 7.12502
rthumb -9.79965 -42.8475
lclavicle -4.93731e-014 -3.53837e-014
lhumerus -86.3345 -22.3742 104.453
lradius 76.8659
lwrist -10.4134
lhand -32.4955 11.5307
lfingers 7.12502
lthumb -5.72716 41.4333
rfemur 10.9443 -12.6468 25.0184
rtibia 28.3632
rfoot -164.218 5.49796
rtoes -7.46208
lfemur -33.4952 3.08286 -12.7459
ltibia 56.4957
lfoot -16.038 1.20743
ltoes -4.61992
244
root 7.04862 18.4377 -38.9366 -180.904 -3.7671 185.055
lowerback 0.457091 3.47465 2.15902
upperback 1.24849 4.48435 3.07868
thorax 0.945473 2.19309 1.96449
lowerneck -11.771 -6.30978 -14.7751
upperneck 21.8214 -10.631 15.1475
head 10.5186 -5.07309 6.46368
rclavicle -3.72845e-014 -1.78906e-014
rhumerus -41.1675 10.4672 -94.2901
rradius 122.397
rwrist 4.99723
rhand -36.3967 -12.6307
rfingers 7.12502
rthumb -9.49261 -42.3969
lclavicle -3.72845e-014 -1.78906e-014
lhumerus -87.2363 -22.1324 104.225
lradius 78.5641
lwrist -9.67648
lhand -32.4654 11.1659
lfingers 7.12502
lthumb -5.69813 41.0693
rfemur 13.1093 -12.9225 24.6287
rtibia 26.4911
rfoot -161.711 3.05289
rtoes -7.91861
lfemur -33.2007 2.14735 -13.1517
ltibia 50.986
lfoot -15.237 0.831263
ltoes -4.19385
245
root 6.99679 18.5817 -39.4475 -180.64 -4.31193 184.927
lowerback -0.384638 3.47614 2.08792
upperback 1.08485 4.47834 2.88712
thorax 1.2583 2.19892 1.8573
lowerneck -12.158 -6.43571 -14.8614
upperneck 22.6369 -10.8278 14.8536
head 10.9146 -5.19664 6.35321
rclavicle 7.41715e-015 9.14409e-015
rhumerus -41.9039 11.7959 -94.3635
rradius 123.862
rwrist 5.19301
rhand -36.2519 -12.3334
rfingers 7.12502
rthumb -9.35284 -42.1059
lclavicle 7.41715e-015 9.14409e-015
lhumerus -87.8547 -22.0496 104.039
lradius 80.2089
lwrist -8.97671
lhand -32.2821 11.1701
lfingers 7.12502
lthumb -5.52108 41.0781
rfemur 14.8962 -12.9677 24.16
rtibia 25.1258
rfoot -159.761 0.689576
rtoes -9.04182
lfemur -32.7865 1.50916 -13.6208
ltibia 45.6065
lfoot -13.4393 0.326218
ltoes -5.69975
